<svg id="blood-nose" enable-background="new 0 0 300 300" height="512" viewBox="0 0 300 300" width="512" xmlns="http://www.w3.org/2000/svg"><g><g><path d="m149.401 237.64c0 5.718-5.076 10.353-11.337 10.353s-11.337-4.635-11.337-10.353 11.337-21.647 11.337-21.647 11.337 15.929 11.337 21.647z" fill="#e66353"/><path d="m138.064 251.993c-8.457 0-15.338-6.438-15.338-14.352 0-6.492 9.246-19.988 12.078-23.969.752-1.055 1.965-1.68 3.26-1.68 1.295 0 2.508.625 3.26 1.68 2.832 3.98 12.076 17.477 12.076 23.969 0 7.915-6.879 14.352-15.336 14.352zm0-28.867c-3.941 6.105-7.338 12.43-7.338 14.516 0 3.504 3.291 6.352 7.338 6.352 4.045 0 7.336-2.848 7.336-6.352 0-2.09-3.394-8.415-7.336-14.516z" fill="#4c241d"/></g><circle cx="132" cy="117.993" fill="#efefd2" r="86"/><circle cx="250" cy="111.993" fill="#4c241d" r="4"/><path d="m156.789 195.739c0-14.047-32.777-18.73-42.142-18.73s-18.73-14.047-18.73-37.459c0-8.138 15.316-18.805 30.081-35.557 27.71-31.44 63.568-72.139 63.568-72.139s15.273-7.833 29.853-7.847c14.581-.014 26.581 3.986 30.581 15.986s-13.668 32.796-18.834 38.398-13.166 21.602-9.472 38.499c2.544 11.634 15.758 45.225 15.758 45.225s4.547 13.878 3.017 23.175c-2.422 14.711-14.469 26.703-14.469 26.703s-32 4-52-12" fill="#ffded5"/><path d="m156.789 199.739c-2.209 0-4-1.789-4-4 0-9.164-26.49-14.73-38.141-14.73-11.02 0-22.73-14.531-22.73-41.457 0-5.934 6.135-12.168 14.627-20.789 4.184-4.25 8.512-8.645 12.371-13.316 27.092-32.793 67.324-75.895 67.729-76.324 1.506-1.617 4.039-1.699 5.652-.191 1.615 1.508 1.701 4.039.191 5.652-.4.43-40.469 43.355-67.404 75.957-4.082 4.941-8.734 9.668-12.838 13.836-5.203 5.281-12.328 12.52-12.328 15.176 0 21.832 8.555 33.457 14.73 33.457 7.59 0 46.141 3.953 46.141 22.73 0 2.21-1.791 3.999-4 3.999z" fill="#4c241d"/><g><path d="m152.42 170.959s-6.42-38.966 31.686 5.034h-14.106" fill="#6b4f5b"/><path d="m184.105 179.993h-14.105c-2.209 0-4-1.789-4-4s1.791-4 4-4h5.098c-13.73-14.453-17.598-12.914-17.643-12.891-1.324.621-1.883 6.379-1.088 11.207.359 2.18-1.117 4.234-3.297 4.594-2.215.383-4.24-1.117-4.598-3.297-.438-2.652-2.225-16.086 5.586-19.746 7.1-3.332 17.299 3.297 33.07 21.516 1.025 1.184 1.266 2.855.615 4.281-.649 1.422-2.071 2.336-3.638 2.336z" fill="#4c241d"/></g><g fill="#4c241d"><path d="m182.898 204.981c-5.414 0-9.527-1.02-9.891-1.113-2.141-.547-3.432-2.727-2.883-4.867.547-2.137 2.709-3.418 4.859-2.887.152.043 15.287 3.73 23.057-4.465 6.344-6.684 6.611-20.246.773-39.219-.65-2.109.535-4.348 2.646-5 2.094-.656 4.35.535 4.998 2.648 6.844 22.238 5.953 38.09-2.648 47.113-6.02 6.318-14.405 7.79-20.911 7.79z"/><path d="m94 63.993c-2.209 0-4-1.789-4-4v-8c0-2.211 1.791-4 4-4s4 1.789 4 4v8c0 2.211-1.791 4-4 4z"/><path d="m94 87.993c-2.209 0-4-1.789-4-4v-8c0-2.211 1.791-4 4-4s4 1.789 4 4v8c0 2.211-1.791 4-4 4z"/><path d="m86 71.993h-8c-2.209 0-4-1.789-4-4s1.791-4 4-4h8c2.209 0 4 1.789 4 4s-1.791 4-4 4z"/><path d="m110 71.993h-8c-2.209 0-4-1.789-4-4s1.791-4 4-4h8c2.209 0 4 1.789 4 4s-1.791 4-4 4z"/><path d="m78.57 134.681c-2.004 0-3.986-.492-5.803-1.461-2.906-1.555-5.033-4.148-5.988-7.305-.955-3.152-.627-6.492.928-9.398s4.146-5.031 7.301-5.988c6.516-1.961 13.414 1.719 15.387 8.23.955 3.152.627 6.492-.928 9.398s-4.146 5.031-7.301 5.988c-1.184.36-2.393.536-3.596.536zm.014-16.684c-.416 0-.838.062-1.256.188-1.107.336-2.02 1.082-2.566 2.105s-.662 2.195-.326 3.305 1.084 2.023 2.105 2.57c1.025.547 2.199.656 3.305.324 2.289-.695 3.586-3.121 2.893-5.41-.569-1.871-2.294-3.082-4.155-3.082z"/></g><g><path d="m181.653 205.758c0 7.862-6.979 14.235-15.589 14.235-8.609 0-15.589-6.373-15.589-14.235s15.589-29.765 15.589-29.765 15.589 21.903 15.589 29.765z" fill="#e66353"/><path d="m166.064 223.993c-10.803 0-19.59-8.18-19.59-18.234 0-8.699 13.604-28.254 16.33-32.086.752-1.055 1.965-1.68 3.26-1.68 1.295 0 2.508.625 3.26 1.68 2.727 3.832 16.328 23.387 16.328 32.086 0 10.054-8.787 18.234-19.588 18.234zm0-40.926c-5.572 8.41-11.59 18.914-11.59 22.691 0 5.645 5.199 10.234 11.59 10.234 6.389 0 11.588-4.59 11.588-10.234 0-3.781-6.015-14.281-11.588-22.691z" fill="#4c241d"/></g><g><path d="m177.401 261.64c0 5.718-5.076 10.353-11.337 10.353s-11.337-4.635-11.337-10.353 11.337-21.647 11.337-21.647 11.337 15.929 11.337 21.647z" fill="#e66353"/><path d="m166.064 275.993c-8.457 0-15.338-6.438-15.338-14.352 0-6.492 9.246-19.988 12.078-23.969.752-1.055 1.965-1.68 3.26-1.68 1.295 0 2.508.625 3.26 1.68 2.832 3.98 12.076 17.477 12.076 23.969 0 7.915-6.879 14.352-15.336 14.352zm0-28.867c-3.941 6.105-7.338 12.43-7.338 14.516 0 3.504 3.291 6.352 7.338 6.352 4.045 0 7.336-2.848 7.336-6.352 0-2.09-3.394-8.415-7.336-14.516z" fill="#4c241d"/></g></g></svg>