<svg id="treatment" enable-background="new 0 0 300 300" height="512" viewBox="0 0 300 300" width="512" xmlns="http://www.w3.org/2000/svg"><g><g fill="#4c241d"><path d="m233.382 69.166c-1.023 0-2.047-.391-2.828-1.172l-11.312-11.312c-1.562-1.562-1.562-4.094 0-5.656s4.094-1.562 5.656 0l11.312 11.312c1.562 1.562 1.562 4.094 0 5.656-.781.781-1.805 1.172-2.828 1.172z"/><path d="m222.069 69.166c-1.023 0-2.047-.391-2.828-1.172-1.562-1.562-1.562-4.094 0-5.656l11.312-11.312c1.562-1.562 4.094-1.562 5.656 0s1.562 4.094 0 5.656l-11.312 11.312c-.781.781-1.804 1.172-2.828 1.172z"/><path d="m56.319 86.193c-5.295 0-10.201-3.438-11.814-8.76-.955-3.154-.627-6.492.928-9.398s4.148-5.033 7.303-5.988c6.508-1.975 13.41 1.719 15.385 8.229 1.973 6.51-1.719 13.412-8.229 15.387-1.188.359-2.391.53-3.573.53zm-.009-16.677c-.416 0-.838.061-1.256.188-1.109.336-2.02 1.084-2.566 2.105s-.662 2.195-.326 3.305c.693 2.291 3.119 3.592 5.41 2.893 2.289-.693 3.586-3.121 2.893-5.41-.569-1.872-2.294-3.081-4.155-3.081z"/></g><circle cx="109.726" cy="157.51" fill="#efefd2" r="86"/><g><path d="m181.95 192.339-20.047-9.112h-60.354l-20.047 9.112c-13.242 6.019-21.776 19.449-21.776 34.269v32.902h144v-32.902c0-14.82-8.535-28.25-21.776-34.269z" fill="#9dc1e4"/><path d="m203.726 263.51h-144c-2.209 0-4-1.791-4-4v-32.902c0-16.369 9.469-31.25 24.121-37.908l20.045-9.113c.521-.236 1.086-.359 1.656-.359h60.355c.57 0 1.135.123 1.656.359l20.047 9.113c14.65 6.658 24.119 21.539 24.119 37.908v32.902c.001 2.209-1.79 4-3.999 4zm-140-8h136v-28.902c0-13.24-7.627-25.262-19.43-30.627 0 0 0 0-.002 0l-19.258-8.754h-58.621l-19.258 8.754c-11.805 5.365-19.432 17.387-19.432 30.627v28.902z" fill="#4c241d"/></g><path d="m237.276 197.061c-1.061 0-2.078-.422-2.828-1.172l-26.406-26.406c-.75-.75-1.172-1.768-1.172-2.828s.422-2.078 1.172-2.828l21.797-21.795c1.562-1.562 4.094-1.562 5.656 0l26.404 26.404c1.562 1.562 1.562 4.094 0 5.656l-21.795 21.797c-.75.75-1.767 1.172-2.828 1.172zm-20.75-30.407 20.75 20.75 16.139-16.141-20.748-20.748z" fill="#4c241d"/><path d="m164.63 243.266c-1.02 0-2.039-.387-2.818-1.162-1.568-1.557-1.576-4.09-.02-5.656l97.25-97.896c1.559-1.566 4.094-1.574 5.656-.02 1.568 1.557 1.576 4.09.02 5.656l-97.25 97.896c-.781.787-1.811 1.182-2.838 1.182z" fill="#4c241d"/><g><path d="m210.663 166.863 26.405 26.405-29.307 29.307c-4.878 4.878-12.788 4.878-17.666 0l-8.739-8.739c-4.878-4.878-4.878-12.788 0-17.666z" fill="#bd53b5"/><path d="m198.927 230.227c-4.225 0-8.445-1.607-11.66-4.822l-8.74-8.74c-6.43-6.428-6.43-16.891 0-23.322l29.309-29.307c1.562-1.562 4.094-1.562 5.656 0l26.404 26.404c1.562 1.562 1.562 4.094 0 5.656l-29.307 29.309c-3.215 3.214-7.44 4.822-11.662 4.822zm11.736-57.707-26.48 26.479c-3.311 3.312-3.311 8.699 0 12.01l8.74 8.74c3.309 3.311 8.697 3.307 12.01 0l26.479-26.48z" fill="#4c241d"/></g><g><path d="m173.759 216.687h16.597v10.373h-16.597z" fill="#fff" transform="matrix(-.707 -.707 .707 -.707 153.903 507.496)"/><path d="m184.257 235.408c-1.023 0-2.047-.391-2.828-1.172l-11.734-11.734c-1.562-1.562-1.562-4.094 0-5.656l7.334-7.336c1.5-1.5 4.156-1.5 5.656 0l11.736 11.736c.75.75 1.172 1.768 1.172 2.828s-.422 2.078-1.172 2.828l-7.336 7.334c-.781.782-1.805 1.172-2.828 1.172zm-6.078-15.734 6.078 6.078 1.678-1.678-6.078-6.078z" fill="#4c241d"/></g><path d="m272.274 153.26c-1.023 0-2.047-.391-2.828-1.172l-17.604-17.604c-1.562-1.562-1.562-4.094 0-5.656 1.562-1.563 4.094-1.563 5.656 0l17.604 17.604c1.562 1.562 1.562 4.094 0 5.656-.781.781-1.804 1.172-2.828 1.172z" fill="#4c241d"/><circle cx="33.726" cy="201.51" fill="#4c241d" r="4.529"/><circle cx="61.726" cy="161.51" fill="#4c241d" r="4.529"/><g><path d="m115.726 167.51s.091 8.808.123 9.217l-14.3 6.5 30.177 48.283 30.177-48.283-14.3-6.5c.031-.409.123-9.217.123-9.217" fill="#f4aeab"/><path d="m131.726 235.51c-1.379 0-2.66-.711-3.393-1.881l-30.178-48.283c-.609-.977-.77-2.17-.438-3.273.334-1.104 1.125-2.01 2.176-2.486l11.908-5.414c-.018-1.389-.043-3.475-.076-6.621-.023-2.209 1.75-4.018 3.959-4.041 2.391-.039 4.018 1.75 4.041 3.959 0 .002.084 8.234.117 9.045.066 1.627-.857 3.182-2.34 3.854l-10.143 4.611 24.365 38.984 24.365-38.984-10.143-4.611c-1.529-.693-2.463-2.271-2.334-3.945.027-.719.111-8.951.111-8.953.023-2.209 1.92-4.123 4.041-3.959 2.209.023 3.982 1.832 3.959 4.041-.033 3.146-.059 5.232-.076 6.621l11.908 5.414c1.051.477 1.842 1.383 2.176 2.486.332 1.104.172 2.297-.438 3.273l-30.178 48.283c-.729 1.169-2.011 1.88-3.389 1.88z" fill="#4c241d"/></g><path d="m87.726 263.51c-2.209 0-4-1.791-4-4v-20c0-2.209 1.791-4 4-4s4 1.791 4 4v20c0 2.209-1.791 4-4 4z" fill="#4c241d"/><g><path d="m183.726 109.51c-.294 0-.336-2.941-.288-6.301.083-5.821-3.813-10.999-9.466-12.394-27.643-6.821-57.325-5.547-84.267 2.727-3.531 1.084-5.848 4.473-5.744 8.166.105 3.746.133 7.801-.236 7.801-5.644 0-10.196 4.676-9.993 10.365.114 3.199 2.081 6.09 4.734 7.88 3.217 2.171 5.98 2.017 8.431 1.192 3.968 19.359 18.022 35.548 37.427 41.794 5.563 1.791 11.581 1.62 17.141-.182l1.775-.575c19.093-6.188 33.023-22.039 37.173-41.079 2.441.861 5.222 1.012 8.371-.95 2.549-1.588 4.495-4.194 4.862-7.175.751-6.089-3.98-11.269-9.92-11.269z" fill="#f4aeab"/><path d="m132.478 176.012c-3.193 0-6.348-.486-9.377-1.461-19.201-6.182-33.934-21.713-39.223-41.039-2.609.061-5.174-.77-7.648-2.439-3.914-2.643-6.342-6.773-6.496-11.053-.135-3.842 1.256-7.475 3.918-10.232 1.783-1.846 3.975-3.137 6.379-3.789 0-.979-.016-2.326-.066-4.178-.156-5.529 3.369-10.506 8.568-12.102 28.064-8.619 58.748-9.611 86.398-2.785 7.473 1.842 12.617 8.559 12.508 16.332-.018 1.139-.02 2.037-.016 2.742 2.602.713 4.971 2.17 6.793 4.23 2.656 3.002 3.895 7.021 3.402 11.029-.494 4-3.004 7.77-6.717 10.082-2.418 1.506-4.924 2.254-7.523 2.152-5.441 18.932-20.053 34.176-38.902 40.287l-1.779.576c-3.385 1.097-6.825 1.648-10.219 1.648zm-45.581-51.065c.693 0 1.381.18 1.994.533.994.57 1.693 1.541 1.924 2.664 3.738 18.232 17.049 33.096 34.736 38.791 4.566 1.469 9.785 1.402 14.68-.182l1.779-.576c17.379-5.633 30.598-20.242 34.496-38.125.244-1.121.959-2.084 1.961-2.643 1.004-.562 2.199-.656 3.277-.277 1.816.641 3.242.475 4.928-.574 1.68-1.047 2.805-2.643 3.004-4.268.217-1.76-.299-3.447-1.453-4.754-1.141-1.289-2.779-2.027-4.498-2.027-1.07 0-2.137-.449-2.889-1.211-1.311-1.332-1.494-2.527-1.398-9.148.057-4.027-2.584-7.504-6.424-8.451-26.268-6.48-55.43-5.531-82.135 2.668-1.773.545-2.975 2.283-2.92 4.23.229 8.281-.027 9.348-1.32 10.678-.754.775-1.834 1.234-2.914 1.234-1.643 0-3.176.65-4.318 1.834-1.141 1.182-1.736 2.74-1.678 4.391.061 1.703 1.201 3.508 2.975 4.707 1.949 1.312 3.375 1.238 4.918.715.416-.14.846-.209 1.275-.209zm100.618-16.478h.041z" fill="#4c241d"/></g><circle cx="153.726" cy="125.51" fill="#4c241d" r="4"/><circle cx="113.726" cy="125.51" fill="#4c241d" r="4"/><g><path d="m183.726 75.51c0-44-100-52-99.78 7.34.021 5.763.146 12.021.087 16.344 10.93.374 21.141-3.243 27.89-10.021 11.638 22.604 44.081 31.871 71.803 10.216 0-8.389 0-20.267 0-23.879z" fill="#6b4f5b"/><path d="m150.38 115.676c-3.629 0-7.25-.387-10.834-1.174-11.961-2.625-22.156-9.51-28.635-19.184-7.244 5.391-16.805 8.258-27.016 7.873-2.176-.074-3.893-1.875-3.863-4.053.037-2.684.002-6.119-.033-9.717-.021-2.17-.045-4.398-.053-6.557-.08-21.436 11.658-32.76 21.518-38.486 18.574-10.781 47.236-10.48 66.668.709 12.635 7.273 19.594 18.078 19.594 30.422v23.879c0 1.23-.566 2.395-1.537 3.152-11.057 8.638-23.465 13.136-35.809 13.136zm-38.457-30.504c.203 0 .408.016.613.047 1.264.197 2.357.984 2.943 2.121 5.049 9.809 14.447 16.859 25.781 19.348 12.857 2.824 26.441-.477 38.465-9.287v-21.891c0-11.998-8.475-19.396-15.586-23.49-17.145-9.871-42.367-10.184-58.658-.721-8.035 4.666-17.602 13.924-17.535 31.535.008 2.143.029 4.354.051 6.508.021 2.018.041 3.986.047 5.803 8.373-.51 15.895-3.623 21.045-8.795.756-.76 1.779-1.178 2.834-1.178zm71.803 14.217h.039z" fill="#4c241d"/></g><path d="m131.726 263.057c-2.209 0-4-1.791-4-4v-27.547c0-2.209 1.791-4 4-4s4 1.791 4 4v27.547c0 2.209-1.791 4-4 4z" fill="#4c241d"/></g></svg>