<svg id="Capa_1" enable-background="new 0 0 511.999 511.999" height="512" viewBox="0 0 511.999 511.999" width="512" xmlns="http://www.w3.org/2000/svg"><g><g><path d="m328.665 235.269c-10.909-15.597-94.018-8.888-116.803-10.152-10.173.011-24.104.023-26.848 9.899-5.151 20.712-12.002 72.102 2.198 91.895 18.7 16.48 119.043 19.191 137.209 1.356 13.57-14.354 16.195-77.43 4.244-92.998z" fill="#f0f2fa"/><path d="m415.145 256.017c23.655-31.244 10.158-79.486-25.536-94.853 40.078-80.712-43.536-169.002-129.99-156.569-88.364 6.469-194.049 108.417-152.812 201.63l2.808-1.056-2.761 1.181c22.563 48.503-10.373 62.877-9.977 105.216 1.018 13.306 11.104 23.751 22.463 26.642-26.584 52.972 31.011 97.681 79.352 67.443 7.822-13.518 11.126-28.465 10.421-43.232-64.263-32.347-69.926-114.07-55.405-174.713 55.342-13.424 101.762-61.846 107.166-119.688 1.033-23.747 7.664-9.406 10.363 8.549 9.966 41.857 36.976 78.498 70.76 103.513 6.358 4.714 12.931 9.589 17.151 16.376 22.112 65.938 1.541 145.116-56.786 169.628-.9 12.611.188 23.719 3.753 33.053 21.233 6.774 42.972 8.649 63.828 3.274 44.277-9.47 73.691-62.542 45.896-99.651-17.207-18.041-16.941-28.114-.694-46.743z" fill="#ffbf48"/><g fill="#ffdac4"><path d="m361.615 289.491c2.897-12.159 4.373-26.521 4.558-40.529l-30.074 6.563c1.205 13.396 1.037 26.894-.357 40.152l25.419-4.239z"/><path d="m179.909 235.174 3.162 2.11c2.359-12.612 16.917-13.403 28.784-13.165 9.317-.107 18.563-.296 27.924-.269 20.63 0 41.49.506 61.998 1.505 11.846.365 24.93 2.571 30.764 13.627.195-.087 2.589-1.857 2.745-1.828 10.489-1.041 20.761-3.971 30.194-8.846-.318-20.155-5.962-36.496-24.079-47.427-37.22-27.442-65.472-68.54-73.497-115.193l-5.901.509c-4.509 58.283-50.99 108.901-107.366 122.014-1.964 10.983-4.262 24.818-5.552 39.077 9.78 4.346 20.215 6.834 30.824 7.886zm103.732-35.224c10.073 10.324 22.663 9.65 31.578-1.739-3.846 12.337-26.406 13.511-31.578 1.739zm-90.658-2.309c10.568 12.25 24.972 13.359 37.212 2.809-7.465 12.208-31.608 10.379-37.212-2.809z"/><path d="m351.766 317.816-21.619 3.793c-10.688 22.213-48.354 17.877-69.542 19.71-18.547-.002-37.247-1.873-55.58-5.563-11.92-1.523-22.897-8.264-24.83-21.373-.116-.009-2.893.907-3.011.822 0 0-15.511-2.509-15.511-2.509 38.168 77.305 151.403 83.351 190.093 5.12z"/><path d="m301.248 366.649c-29.219 12.296-62.989 11.461-91.074-3.565 1.008 23.108-8.258 46.124-25.545 62.026 37.102 47.227 113.38 49.957 153.76 5.531-26.711-10.947-39.903-32.225-37.141-63.992z"/><path d="m148.165 255.157c.391 11.264 1.613 21.164 4.04 31.152.795-.742 24.727 5.29 26.033 5.407-.316-11.099.223-23.247 1.387-33.806-10.816.8-21.564-3.64-31.607-7.256z"/></g><path d="m426.579 458.813c-17.692-11.827-40.072-15.148-60.572-19.735-34.811 47.788-105.84 62.069-157.637 34.62-13.283-6.539-31.079-19.867-37.35-38.685-39.396 22.749-103.004 12.72-109.328 72.714 128.243-7.247 259.028-7.16 387.258.254 5.481-19.499-7.797-39.586-22.371-49.168z" fill="#ff8984"/><path d="m341.221 431.71-1.784-.708-.543.517h-.069c-40.614 44.597-117.643 41.805-154.938-5.739-3.732 3.195-7.799 6.193-11.949 8.676 6.109 18.845 23.688 31.79 36.891 38.354 51.932 27.552 120.511 12.526 156.65-33.817-8.259-1.959-17.598-4.557-24.258-7.283z" fill="#ed6d66"/><path d="m365.81 233.875-.223-4.344c-10.409 4.992-21.693 8.076-33.267 8.94 1.974 4.835 3.179 10.254 3.734 16.047l30.112-6.578c-.005-4.633-.096-9.069-.356-14.065z" fill="#d8deec"/><path d="m335.667 296.298c-1.022 8.629-2.307 16.453-4.767 24.164l21.185-3.718c3.691-7.513 6.583-15.95 8.877-24.26-1.051.122-25.105 4.423-25.295 3.814z" fill="#d8deec"/><path d="m179.589 236.069c-10.513-.799-20.856-3.621-30.629-7.684-.549 7.048-.92 14.333-.898 21.108 9.999 4.787 20.996 6.126 31.497 8.934.914-7.648 2.285-15.227 4.085-22.369-.252.01-3.822-.018-4.055.011z" fill="#d8deec"/><path d="m179.308 307.369c-.507-4.797-.824-9.755-1.021-14.612l-26.061-5.891c2.342 8.644 5.026 16.756 9.088 24.754l18.962 3.071c-.288-2.053-.776-5.293-.968-7.322z" fill="#d8deec"/></g><g><path d="m449.456 478.973c-25.834-54.01-104.788-27.953-137.033-73.824 20.495 5.41 40.586 5.822 58.535 1.127 23.083-6.039 42.71-21.147 52.503-40.413 10.871-21.386 9.089-47.716-4.433-65.519-36.514-36.086 24.828-36.379 9.818-98.646-4.847-18.137-17.47-33.723-34.099-42.328 16.791-36.809 8.777-84.105-20.068-116.292-27.08-30.216-71.298-46.495-115.415-42.477-39.509 3.596-79.357 22.586-112.203 53.47-39.285 36.166-63.344 87.912-49.438 137.78 4.425 15.769 13.424 31.461 13.23 47.595-2.251 32.173-41.204 80.694 2.869 100.954-21.103 48.95 25.645 93.167 74.814 74.639-25.923 32.728-75.227 26.732-106.986 49.665-15.647 11.116-24.715 27.888-23.666 43.77.126 1.917 1.768 3.36 3.69 3.264 128.544-7.274 258.896-7.189 387.434.253.068.004.136.006.204.006 1.529 0 2.892-.997 3.345-2.474 2.965-9.665 1.894-20.23-3.101-30.55zm-265.925-49.01c38.663 46.553 115.3 48.773 156.58 4.537 6.527 2.59 13.273 4.579 19.909 6.226-17.692 20.547-41.89 34.858-68.472 40.38-27.478 5.705-56.369 1.811-81.353-10.968-12.267-6.274-28.069-17.303-34.584-34.447 2.768-1.743 5.409-3.661 7.92-5.728zm132.005-10.185c5.319 4.83 11.34 8.622 17.702 11.704-19.106 18.626-46.112 29.141-72.78 28.212-27.215-.943-53.95-13.794-71.728-34.419 15.227-14.987 24.329-35.961 24.426-57.447 26.304 12.889 57.767 13.582 84.961 3.214-.667 21.816 4.909 37.376 17.419 48.736zm-80.11-279.976c16.108-20.841 27.821-46.734 29.57-73.381 1.698 6.554 2.617 13.774 4.047 18.818 12.214 38.071 36.204 72.09 67.549 95.791 18.038 11.155 25.598 24.491 25.745 45.516-9.075 4.792-19.215 6.184-29.004 8.255-6.832-10.265-20.059-11.95-31.413-12.439-29.901-1.506-60.143-1.783-90.068-1.248-10.435.013-26.019.034-30.279 11.564-9.81-1.901-20.012-3.008-29.293-7.307 1.157-11.899 3.006-23.581 4.969-34.737 30.805-7.847 58.497-25.835 78.177-50.832zm114.611 174.252-14.932 2.623c1.611-5.689 2.426-11.536 3.195-17.376.004-.001.008 0 .012-.001l18.429-3.067c-1.838 6.295-4.078 12.233-6.704 17.821zm-172.973-59.623c-8.894-1.326-17.677-3.45-25.993-6.939.033-4.956.247-9.906.596-14.831 9.026 3.468 18.51 5.788 28.184 6.393-1.14 4.835-2.064 9.953-2.787 15.377zm5.117 26.645c.328-17.787 2.2-32.59 5.725-45.256 4.282-12.491 39.167-6.355 52.016-7.971 21.004 1.941 72.902-4.255 86.473 9.376 11.044 20.114 6.138 47.293 3.755 69.445-1.241 7.237-3.052 14.607-7.87 19.487-28.944 17.835-83.539 11.038-116.466 5.68-26.598-1.769-23.109-31.012-23.633-50.761zm180.969-35.546-24.532 5.353c-.434-3.352-1.079-6.691-2.19-9.839 9.139-.974 17.996-3.327 26.387-7.015.198 3.907.315 7.745.335 11.501zm-4.459 43.282-19.606 3.263c1.034-11.359 1.102-22.79.204-34.174l23.782-5.19c-.338 13.004-1.796 25.05-4.38 36.101zm-207.526-33.755c8.066 3.173 16.572 4.962 25.087 6.438-.672 8.484-1.278 17.824-1.083 26.454l-20.557-4.637c-.014-.003-.027-.002-.04-.005-2.055-9.297-3.101-18.763-3.407-28.25zm24.228 40.118c.262 5.341.639 10.629 1.341 15.907l-13.405-2.175c-1.579-3.258-3.003-6.593-4.245-10-.963-2.644-1.814-5.311-2.584-7.994zm1.308 22.993c3.655 1.997 3.647 8.634 7.626 11.514 5.435 5.68 13.227 7.633 20.104 9.018 31.661 4.898 108.574 15.977 127.696-14.391l13.848-2.433c-36.922 68.405-142.696 62.676-178.483-5.201zm19.312 85.415c-19.261 12.637-49.66 11.017-65.056-3.467-15.886-14.945-19.845-41.481-9.015-60.413 1.275-2.085-.221-5.023-2.657-5.217-27.114-6.156-20.542-40.643-10.93-59.696 16.584-33.555 7.783-52.462-4.001-84.854-6.285-22.085-4.453-47.402 5.16-71.29 8.445-20.988 22.691-40.998 42.34-59.474 31.712-29.818 70.082-48.143 108.042-51.599 41.955-3.824 83.935 11.576 109.567 40.177 27.812 31.033 35.005 76.956 17.491 111.676-.43.853-.493 1.845-.174 2.746.319.9.993 1.631 1.864 2.023 16.317 7.332 28.817 22.028 33.436 39.31 14.954 55.752-48.688 59.845-8.629 101.073 11.935 15.713 13.448 39.066 3.767 58.113-8.9 17.51-26.857 31.272-48.034 36.812-18.446 4.826-39.414 3.848-60.741-2.785-2.805-7.94-3.842-17.382-3.189-28.658 13.517-6.198 25.677-15.075 35.235-26.252 23.624-27.627 33.212-67.919 28.497-119.759-1.61-56.489-74.598-45.064-100.315-165.319-1.842-7.056-8.424-5.594-8.768 1.254-4.747 59.483-47.462 113.326-106.512 126.392-1.356.322-2.392 1.419-2.637 2.791-6.331 35.523-11.938 76.568 1.752 114.136 9.678 26.556 29.415 49.181 53.602 62.86-.001.069-.015.136-.012.207.602 13.423-2.917 27.041-9.527 38.921-.188.082-.376.174-.556.292zm250.529 101.256c-126.651-7.223-255.053-7.322-381.718-.293 7.075-50.961 68.319-46.105 104.645-65.346 39.852 72.644 151.935 63.662 198.138 3.297 19.625 4.327 40.674 7.71 57.303 18.807 13.764 9.185 25.147 26.762 21.632 43.535z"/><path d="m211.166 204.702c-5.904-.448-11.655-3.756-15.011-8.634-2.52-3.781-8.395.265-5.768 3.967 4.595 6.68 12.165 11.034 20.249 11.646 8.06.616 16.229-2.549 21.773-8.461 3.157-3.266-2.044-8.147-5.103-4.791-4.052 4.317-10.231 6.717-16.14 6.273z"/><path d="m298.928 211.32c7.712.01 15.135-4.258 19.048-10.897 2.367-3.878-3.776-7.503-6.027-3.56-2.507 4.246-7.309 7.165-12.232 7.435-4.93.267-10.015-2.105-12.973-6.049-2.67-3.675-8.378.606-5.601 4.198 4.153 5.542 10.883 8.873 17.785 8.873z"/></g></g></svg>